<?xml version="1.0" encoding="UTF-8" standalone="no"?>
<!-- Created with Inkscape (http://www.inkscape.org/) -->

<svg
   width="48"
   height="48"
   viewBox="0 0 12.7 12.7"
   version="1.1"
   id="svg373"
   inkscape:version="1.2.1 (9c6d41e410, 2022-07-14)"
   sodipodi:docname="revisao.svg"
   xmlns:inkscape="http://www.inkscape.org/namespaces/inkscape"
   xmlns:sodipodi="http://sodipodi.sourceforge.net/DTD/sodipodi-0.dtd"
   xmlns="http://www.w3.org/2000/svg"
   xmlns:svg="http://www.w3.org/2000/svg">
  <sodipodi:namedview
     id="namedview375"
     pagecolor="#ffffff"
     bordercolor="#000000"
     borderopacity="0.25"
     inkscape:showpageshadow="2"
     inkscape:pageopacity="0.0"
     inkscape:pagecheckerboard="0"
     inkscape:deskcolor="#d1d1d1"
     inkscape:document-units="mm"
     showgrid="false"
     inkscape:zoom="9.3646464"
     inkscape:cx="28.351311"
     inkscape:cy="20.289073"
     inkscape:window-width="1600"
     inkscape:window-height="837"
     inkscape:window-x="-8"
     inkscape:window-y="-8"
     inkscape:window-maximized="1"
     inkscape:current-layer="layer1" />
  <defs
     id="defs370" />
  <g
     inkscape:label="Camada 1"
     inkscape:groupmode="layer"
     id="layer1">
    <path
       fill="#000000"
       fill-rule="evenodd"
       d="m 5.2795985,5.1305797 c 0,-0.1112933 0.090475,-0.2012315 0.2018372,-0.2012315 h 1.1084786 c 0.029065,0 0.056725,0.012573 0.075856,0.034429 l 0.7055548,0.806351 c 0.016131,0.01844 0.024936,0.041973 0.024936,0.066365 v 1.7640326 c 0,0.1112707 -0.090587,0.2014412 -0.2017344,0.2014412 H 5.481327 c -0.1112066,0 -0.2017326,-0.0904 -0.2017326,-0.2012313 z m 0.3527773,0.050712 c -0.055661,0 -0.1007906,0.045137 -0.1007906,0.1007933 v 2.1670656 c 0,0.055657 0.045129,0.1007934 0.1007906,0.1007934 h 1.4111085 c 0.055657,0 0.1007933,-0.045137 0.1007933,-0.1007934 V 6.0376757 c 0,-0.051401 -0.023217,-0.1144147 -0.056767,-0.1535584 L 6.5152641,5.2164893 C 6.4961948,5.1941706 6.4681573,5.1813053 6.438736,5.1813053 Z M 5.7331665,7.3483614 V 5.3828808 h 0.6591949 l 0.5420783,0.6324257 c 0.00209,0.00251 0.00839,0.019069 0.00839,0.022379 v 1.310684 z M 6.3379256,6.8947885 c 0.1948401,0 0.3527765,-0.1579376 0.3527765,-0.3527785 0,-0.068335 -0.031537,-0.147608 -0.087089,-0.2444662 -0.016552,-0.028979 -0.035205,-0.059009 -0.055427,-0.089815 -0.028773,-0.043881 -0.059449,-0.087193 -0.090107,-0.128288 -0.010693,-0.014464 -0.020745,-0.027513 -0.029715,-0.039061 -0.00545,-0.00712 -0.00943,-0.01216 -0.011733,-0.01488 -0.040337,-0.050335 -0.1169506,-0.050335 -0.1573105,0 -0.00231,0.00251 -0.00627,0.00795 -0.011733,0.01488 -0.00901,0.01152 -0.019069,0.024665 -0.029715,0.039061 -0.030657,0.041091 -0.061335,0.084427 -0.090107,0.128288 -0.020327,0.030805 -0.038809,0.060855 -0.055427,0.089815 -0.055573,0.096855 -0.087089,0.1761271 -0.087089,0.2444662 0,0.1948401 0.1579377,0.3527785 0.3527765,0.3527785 z M 5.7331647,4.3749465 h 0.6047609 c 0.055657,0 0.1007933,0.045137 0.1007933,0.1007933 v 0.302382 H 5.6323667 V 4.4757404 c 0,-0.055657 0.045129,-0.1007934 0.1007906,-0.1007934 z M 6.296204,6.318342 C 6.309612,6.297806 6.323676,6.277333 6.337925,6.257111 c 0.01424,0.020327 0.028248,0.040757 0.041721,0.061231 0.018237,0.02764 0.034639,0.054273 0.049119,0.079523 0.038871,0.067789 0.060373,0.121792 0.060373,0.1441488 0,0.083505 -0.067685,0.1511904 -0.1511904,0.1511904 -0.083505,0 -0.1511904,-0.067685 -0.1511904,-0.1511904 0,-0.022379 0.021479,-0.076383 0.060351,-0.1441488 0.014464,-0.025231 0.030971,-0.051905 0.049119,-0.079523 z"
       id="path1796"
       style="display:inline;stroke-width:0.0503967;fill:#140001;fill-opacity:1" />
    <path
       style="fill:none;stroke:#640207;stroke-width:0.709;stroke-dasharray:none;stroke-opacity:1"
       d="M 11.563453,6.3499999 A 5.2134528,5.2134533 0 0 1 6.3499999,11.563453 5.2134528,5.2134533 0 0 1 1.1365471,6.3499999 5.2134528,5.2134533 0 0 1 6.3499999,1.1365466 5.2134528,5.2134533 0 0 1 11.563453,6.3499999 Z"
       id="path3233" />
    <path
       style="display:inline;fill:#ffffff;fill-opacity:1;stroke:#ffffff;stroke-width:0.209061"
       d="M 3.6768045,3.9334466 A 1.4829695,1.4829693 0 0 1 2.193835,5.4164159 1.4829695,1.4829693 0 0 1 0.7108655,3.9334466 1.4829695,1.4829693 0 0 1 2.193835,2.4504774 1.4829695,1.4829693 0 0 1 3.6768045,3.9334466 Z"
       id="path1139"
       sodipodi:insensitive="true" />
    <path
       style="display:inline;fill:#ffffff;fill-opacity:1;stroke:#ffffff;stroke-width:0.209061"
       d="M 3.6768045,9.0976027 A 1.4829695,1.4829693 0 0 1 2.193835,10.580572 1.4829695,1.4829693 0 0 1 0.7108655,9.0976027 1.4829695,1.4829693 0 0 1 2.193835,7.6146335 1.4829695,1.4829693 0 0 1 3.6768045,9.0976027 Z"
       id="path1139-9"
       sodipodi:insensitive="true" />
    <path
       style="display:inline;fill:#ffffff;fill-opacity:1;stroke:#ffffff;stroke-width:0.209061"
       d="M 11.96499,3.9334466 A 1.4829695,1.4829693 0 0 1 10.482021,5.4164159 1.4829695,1.4829693 0 0 1 8.9990511,3.9334466 1.4829695,1.4829693 0 0 1 10.482021,2.4504775 1.4829695,1.4829693 0 0 1 11.96499,3.9334466 Z"
       id="path1139-93"
       sodipodi:insensitive="true" />
    <path
       style="display:inline;fill:#ffffff;fill-opacity:1;stroke:#ffffff;stroke-width:0.209061"
       d="M 11.96499,9.0976027 A 1.4829695,1.4829693 0 0 1 10.482021,10.580572 1.4829695,1.4829693 0 0 1 8.9990511,9.0976027 1.4829695,1.4829693 0 0 1 10.482021,7.6146336 1.4829695,1.4829693 0 0 1 11.96499,9.0976027 Z"
       id="path1139-9-0"
       sodipodi:insensitive="true" />
    <path
       d="M 3.0541407,3.19247 C 2.9050633,3.1070931 2.5642224,3.0359414 2.148163,3.0359414 c -0.3930185,0 -0.6925272,0.067087 -0.8219522,0.1443303 -0.069798,0.042009 -0.057599,0.087413 -0.057599,0.1267138 v 1.3667602 c 0,0.075889 0.5502276,0.1572062 0.9215633,0.1572062 0.1267138,0 0.2629169,-0.00347 0.3903092,-0.015588 0.2913777,-0.029153 0.539386,-0.088769 0.539386,-0.1416262 V 3.3069834 c 0,-0.05421 0.00202,-0.075899 -0.065735,-0.1145171 z M 1.4976486,3.7501514 c 0,0.030493 -0.02778,0.052858 -0.057599,0.048119 -0.044045,-0.00746 -0.078601,-0.0149 -0.102322,-0.019653 -0.022355,-0.00472 -0.03862,-0.024391 -0.03862,-0.047433 V 3.3618801 c 0,-0.031168 0.02914,-0.05421 0.059633,-0.047433 0.02507,0.00613 0.057599,0.012864 0.098254,0.020329 0.023041,0.00403 0.03998,0.024391 0.03998,0.048119 v 0.3672691 z m 0.3903091,0.049469 c 0,0.028455 -0.024392,0.050822 -0.052182,0.048794 -0.098252,-0.00815 -0.186345,-0.018298 -0.2615601,-0.028455 -0.023717,-0.00343 -0.042008,-0.023718 -0.042008,-0.048119 V 3.4025389 c 0,-0.029818 0.025752,-0.052172 0.054884,-0.048119 0.071824,0.00948 0.1565303,0.018979 0.2547855,0.025744 0.025752,0.00202 0.045395,0.023041 0.045395,0.048795 v 0.3706573 z m 0.5631015,0.00948 c 0,0.025752 -0.020329,0.047433 -0.046073,0.048795 -0.067087,0.00343 -0.1375584,0.00473 -0.2114184,0.00473 -0.078601,0 -0.1538179,-0.00202 -0.2249695,-0.00545 -0.025752,-0.00131 -0.046081,-0.022367 -0.046081,-0.048784 V 3.4357115 c 0,-0.02778 0.023041,-0.049469 0.050822,-0.048794 0.068436,0.0027 0.1416228,0.00472 0.2202262,0.00472 0.073861,0 0.1429781,-0.00131 0.2073516,-0.00403 0.02778,-0.00131 0.050821,0.021003 0.050821,0.048795 v 0.3726913 z m 0.4058939,-0.037945 c 0,0.024392 -0.017622,0.04472 -0.042007,0.048119 -0.078601,0.01083 -0.1721153,0.021679 -0.2771468,0.029818 -0.028455,0.00202 -0.052182,-0.020329 -0.052182,-0.048794 V 3.4289618 c 0,-0.025744 0.020329,-0.046758 0.045395,-0.048794 0.1050312,-0.00675 0.1951546,-0.016264 0.2703697,-0.026429 0.02914,-0.00403 0.054884,0.018977 0.054884,0.048119 V 3.77116 Z m 0.2303915,-0.040661 c 0,0.023041 -0.016265,0.042684 -0.03862,0.047433 -0.023718,0.00473 -0.057599,0.012208 -0.1002906,0.019653 -0.029818,0.00545 -0.057599,-0.017622 -0.057599,-0.048109 V 3.3808489 c 0,-0.023717 0.016942,-0.04337 0.03998,-0.048119 0.039981,-0.00746 0.071825,-0.014227 0.096228,-0.019652 0.030493,-0.00675 0.059633,0.016264 0.059633,0.047433 v 0.3699815 z"
       id="path1949"
       style="display:inline;stroke-width:0.00677617;fill:#140001;fill-opacity:1" />
    <path
       d="m 11.277335,2.877522 h -1.138382 c -0.1449773,0 -0.2629298,0.1179508 -0.2629298,0.2629308 v 0.4984516 h -0.263157 c -0.044454,0 -0.080616,0.036161 -0.080616,0.080618 V 3.828164 c 0,0.014534 0.011823,0.026291 0.026299,0.026291 h 0.00778 L 9.4660165,4.5940783 h -0.016046 c -0.014519,0 -0.026283,0.011823 -0.026283,0.026313 v 0.1086509 c 0,0.04447 0.036162,0.080617 0.080616,0.080617 h 0.02998 v 0.1533992 c 0,0.014518 0.011823,0.026313 0.026299,0.026313 h 0.7470195 c 0.01452,0 0.0263,-0.011823 0.0263,-0.026313 v -0.067655 h 0.94352 c 0.144978,0 0.262932,-0.1179468 0.262932,-0.2629322 V 3.1404666 c 0,-0.1449814 -0.117952,-0.2629309 -0.262931,-0.2629309 z M 9.5848373,3.7195204 c 0,-0.015458 0.012568,-0.028029 0.02802,-0.028029 h 0.6422887 c 0.01545,0 0.02803,0.012568 0.02803,0.028029 v 0.082352 H 9.5848209 Z M 10.681851,3.2369091 v 0.097597 H 10.086367 V 3.2369091 Z M 10.086367,3.184327 V 3.140454 c 0,-0.028992 0.02359,-0.052582 0.05259,-0.052582 h 0.542896 v 0.096457 z m 0.595484,0.2027706 v 0.097597 h -0.595484 v -0.097597 z m 0,0.1501828 v 0.097602 h -0.595484 v -0.097602 z m -0.263733,1.0568022 h -0.01605 l -7.25e-4,-0.00553 h 0.280528 v 0.096453 h -0.23744 v -0.064661 c 0,-0.014519 -0.01177,-0.026313 -0.0263,-0.026313 z m -0.02393,-0.058091 -0.01317,-0.097591 h 0.300897 v 0.097591 z m -0.02038,-0.1501822 -0.01317,-0.097597 h 0.321268 v 0.097597 z m -0.02038,-0.1501829 -0.01317,-0.097602 h 0.341636 v 0.097602 z m -0.14691,-0.3811651 h 0.04216 l 0.10031,0.7396215 h -0.07013 z m 0.01951,0.7396215 h -0.07472 L 10.107948,3.854461 h 0.04576 z m 0.107031,-0.5086433 -0.01317,-0.0976 h 0.362005 v 0.0976 z m -0.02035,-0.1501841 -0.01099,-0.08079 h 0.0078 c 0.01125,0 0.02064,-0.00698 0.02446,-0.016809 h 0.347914 v 0.097602 z m 0.02306,-0.1501892 v -0.065539 c 0,-0.011391 -0.0024,-0.022217 -0.0068,-0.032053 h 0.352768 v 0.097589 h -0.346026 z m -0.237108,0.8090166 h -0.07622 L 10.008373,3.854461 h 0.04695 z m -0.1288133,0 h -0.071651 l 0.01407,-0.7396219 h 0.04342 z M 9.8597125,3.854461 9.8456428,4.5940829 H 9.769427 L 9.8128191,3.854461 Z m -0.099626,0 -0.043392,0.7396219 h -0.07472 L 9.7143303,3.854461 Z m -0.1407424,0 h 0.042164 L 9.5891541,4.5940829 H 9.51903 Z M 10.281239,4.9367397 H 9.5868056 V 4.8096329 H 10.281239 Z M 9.5042372,4.757051 c -0.015447,0 -0.028034,-0.012568 -0.028034,-0.028034 V 4.646664 h 0.9156298 v 0.082353 c 0,0.015447 -0.01256,0.028034 -0.02804,0.028034 z M 11.487689,4.6324439 c 0,0.1159852 -0.09436,0.2103473 -0.210344,0.2103473 h -0.94352 V 4.809638 h 0.02998 c 0.04155,0 0.07584,-0.031613 0.08014,-0.07201 h 0.833398 c 0.05799,0 0.105162,-0.047178 0.105162,-0.1051786 v -1.491981 c 0,-0.05799 -0.04717,-0.1051708 -0.105162,-0.1051708 h -1.138382 c -0.05799,0 -0.105179,0.047174 -0.105179,0.1051708 V 3.6389209 H 9.9286007 V 3.1404684 c 0,-0.1159826 0.09436,-0.2103436 0.2103453,-0.2103436 h 1.138378 c 0.11599,0 0.210343,0.094362 0.210343,0.2103436 V 4.6324558 Z M 11.329923,3.2369132 v 0.097597 H 10.73444 V 3.2369132 Z M 10.73444,3.184331 V 3.087873 h 0.542898 c 0.029,0 0.05259,0.02359 0.05259,0.052591 v 0.043873 z m 0.595483,0.2027707 v 0.097597 H 10.73444 v -0.097597 z m 0,0.1501828 v 0.097602 H 10.73444 v -0.097602 z m 0,0.1501885 V 3.78507 H 10.73444 V 3.687473 Z m 0,0.1501828 v 0.097602 H 10.73444 v -0.097602 z m 0,0.1501876 v 0.0976 H 10.73444 v -0.097606 z m 0,0.1501845 v 0.097602 H 10.73444 v -0.097602 z m 0,0.1501884 v 0.097596 H 10.73444 v -0.097596 z m 0,0.150183 v 0.097605 H 10.73444 v -0.097605 z m 0,0.1501857 v 0.043871 c 0,0.028977 -0.02359,0.052596 -0.05259,0.052596 H 10.73444 V 4.588599 Z"
       id="path136"
       style="display:inline;stroke-width:0.00956103;fill:#140001;fill-opacity:1" />
    <g
       id="g2110"
       transform="matrix(0.02561115,0,0,0.02561115,1.0308288,7.9261527)"
       style="display:inline;fill:#140001;fill-opacity:1">
      <path
         d="M 9.891,30.334 V 80.172 H 6.247 c -1.192,0 -2.16,0.967 -2.16,2.16 0,1.191 0.968,2.158 2.16,2.158 h 43.1 c 1.192,0 2.159,-0.967 2.159,-2.158 0,-1.193 -0.967,-2.16 -2.159,-2.16 H 46.564 V 52.871 h 2.268 c 0.949,0 1.721,0.771 1.721,1.721 V 64.1 c 0,4.338 3.529,7.867 7.867,7.867 h 1.878 c 4.337,0 7.866,-3.529 7.866,-7.867 V 48.998 c 0,-0.357 -0.09,-0.711 -0.26,-1.027 l -10.813,-20 c -0.567,-1.049 -1.879,-1.438 -2.928,-0.873 -1.049,0.568 -1.44,1.879 -0.873,2.928 l 2.644,4.891 -3.508,6.123 c -0.296,0.518 -0.366,1.133 -0.192,1.703 0.174,0.568 0.574,1.043 1.108,1.307 l 10.28,5.088 0.221,0.408 V 64.1 c 0,1.955 -1.591,3.547 -3.546,3.547 h -1.878 c -1.956,0 -3.547,-1.592 -3.547,-3.547 v -9.508 c 0,-3.33 -2.71,-6.041 -6.041,-6.041 H 46.563 V 30.334 c 0,-3.691 -3.003,-6.695 -6.695,-6.695 H 16.584 c -3.69,0 -6.693,3.004 -6.693,6.695 z m 47.424,10.861 1.036,-1.809 1.713,3.168 z M 17.091,37.881 c 0,-3.691 3.003,-6.695 6.693,-6.695 h 7.731 c 3.69,0 6.693,3.004 6.693,6.695 v 6.582 c 0,3.691 -3.003,6.695 -6.693,6.695 h -7.731 c -3.69,0 -6.693,-3.004 -6.693,-6.695 z"
         id="path2102"
         style="fill:#140001;fill-opacity:1" />
      <path
         d="M 68.59,7.457 C 68.24,7.109 67.75,6.941 67.263,7.002 c -1.449,0.18 -8.805,1.201 -11.316,3.707 -2.863,2.865 -3.088,7.303 -0.5,9.891 1.166,1.168 2.76,1.811 4.487,1.811 1.967,0 3.937,-0.842 5.403,-2.311 2.51,-2.506 3.53,-9.863 3.71,-11.314 0.06,-0.489 -0.109,-0.979 -0.457,-1.329 z"
         id="path2104"
         style="fill:#140001;fill-opacity:1" />
      <path
         d="m 86.721,34.311 c 0.061,-0.488 -0.107,-0.979 -0.456,-1.326 -0.349,-0.352 -0.841,-0.518 -1.328,-0.457 -1.449,0.18 -8.805,1.199 -11.318,3.707 -2.863,2.865 -3.087,7.303 -0.499,9.891 1.167,1.166 2.761,1.811 4.487,1.811 1.966,0 3.936,-0.844 5.402,-2.311 2.51,-2.509 3.532,-9.864 3.712,-11.315 z"
         id="path2106"
         style="fill:#140001;fill-opacity:1" />
      <path
         d="m 76.007,28.33 c 1.966,0 3.936,-0.842 5.404,-2.311 2.507,-2.508 3.529,-9.865 3.709,-11.314 0.061,-0.488 -0.107,-0.979 -0.456,-1.326 -0.351,-0.35 -0.841,-0.518 -1.328,-0.457 -1.449,0.18 -8.805,1.201 -11.316,3.705 -2.863,2.867 -3.088,7.305 -0.5,9.893 1.167,1.168 2.76,1.81 4.487,1.81 z"
         id="path2108"
         style="fill:#140001;fill-opacity:1" />
    </g>
    <g
       transform="matrix(0.08163273,0,0,0.08163273,20.098403,-8.0401685)"
       id="g471"
       style="display:inline;fill:#140001;fill-opacity:1">
      <path
         d="m -112.22627,198.76237 a 0.27005783,0.27005783 0 0 0 -0.26591,0.27382 v 21.79634 a 0.27005783,0.27005783 0 1 0 0.53974,0 v -21.79634 a 0.27005783,0.27005783 0 0 0 -0.27383,-0.27382 z m -3.44289,0.54375 v 1.51692 a 0.27005783,0.27005783 0 0 1 0,0.0866 v 2.4866 a 0.27005783,0.27005783 0 0 1 0,0.0853 v 1.96151 a 0.27005783,0.27005783 0 0 1 0,0.0845 v 2.33873 a 0.27005783,0.27005783 0 0 1 0,0.0742 v 2.02217 a 0.27009789,0.27009789 0 0 1 0,0.006 v 2.03894 a 0.27005783,0.27005783 0 0 1 0,0.11656 v 2.3095 a 0.27005783,0.27005783 0 0 1 0,0.10189 v 1.94338 a 0.27005783,0.27005783 0 0 1 0,0.10549 v 2.45612 a 0.27005783,0.27005783 0 0 1 0,0.13016 v 1.39203 h 2.05866 v -0.90967 c -0.1263,-0.0406 -0.29142,-0.0851 -0.5948,-0.23447 -0.20111,-0.0991 -0.40884,-0.21928 -0.58447,-0.37078 -0.17563,-0.1515 -0.33355,-0.34287 -0.36275,-0.59912 -0.0327,-0.28721 0.11713,-0.53675 0.29546,-0.70167 0.17832,-0.16491 0.39207,-0.2835 0.59322,-0.39829 0.20115,-0.11479 0.38985,-0.22562 0.50662,-0.32973 0.11676,-0.10411 0.15176,-0.16928 0.14715,-0.25949 -0.004,-0.0726 -0.0345,-0.12018 -0.14515,-0.20052 -0.11067,-0.0803 -0.2884,-0.16253 -0.47951,-0.24724 -0.19112,-0.0847 -0.39564,-0.17178 -0.57497,-0.30611 -0.17934,-0.13433 -0.3444,-0.35142 -0.3444,-0.62192 0,-0.27278 0.16929,-0.48997 0.35125,-0.62359 0.18196,-0.13363 0.3891,-0.22045 0.58204,-0.30495 0.19295,-0.0845 0.37175,-0.16665 0.4792,-0.24556 0.10746,-0.0789 0.13111,-0.11783 0.13111,-0.18817 0,-0.0703 -0.0237,-0.1097 -0.13111,-0.18861 -0.10745,-0.0789 -0.28625,-0.16063 -0.4792,-0.24513 -0.19294,-0.0845 -0.40008,-0.17133 -0.58204,-0.30494 -0.18196,-0.13363 -0.35125,-0.35082 -0.35125,-0.62361 0,-0.27279 0.16929,-0.48987 0.35125,-0.62349 0.18196,-0.13363 0.3891,-0.22045 0.58204,-0.30495 0.19295,-0.0845 0.37175,-0.16665 0.4792,-0.24557 0.10746,-0.0789 0.13111,-0.11824 0.13111,-0.18859 0,-0.0704 -0.0237,-0.10927 -0.13111,-0.18818 -0.10745,-0.0789 -0.28625,-0.16106 -0.4792,-0.24556 -0.19294,-0.0845 -0.40008,-0.17143 -0.58204,-0.30506 -0.18196,-0.13361 -0.35125,-0.35069 -0.35125,-0.62349 0,-0.27279 0.16929,-0.48986 0.35125,-0.62349 0.18196,-0.13363 0.3891,-0.22045 0.58204,-0.30495 0.19295,-0.0845 0.37175,-0.16665 0.4792,-0.24556 0.10746,-0.0789 0.13111,-0.11783 0.13111,-0.18817 0,-0.0704 -0.0237,-0.10927 -0.13111,-0.18819 -0.10745,-0.0789 -0.28625,-0.16116 -0.4792,-0.24566 -0.19294,-0.0845 -0.40008,-0.17132 -0.58204,-0.30495 -0.18196,-0.13362 -0.35125,-0.3507 -0.35125,-0.62349 0,-0.27279 0.16929,-0.48987 0.35125,-0.6235 0.18196,-0.13362 0.3891,-0.22055 0.58204,-0.30505 0.19295,-0.0845 0.37175,-0.16665 0.4792,-0.24556 0.10746,-0.0789 0.13111,-0.11783 0.13111,-0.18818 0,-0.0703 -0.0237,-0.10927 -0.13111,-0.18817 -0.10745,-0.0789 -0.28625,-0.16107 -0.4792,-0.24556 -0.19294,-0.0845 -0.40008,-0.17132 -0.58204,-0.30494 -0.18196,-0.13364 -0.35125,-0.35071 -0.35125,-0.62351 0,-0.27069 0.16524,-0.48808 0.34482,-0.62233 0.17957,-0.13427 0.38443,-0.22151 0.57571,-0.30621 0.19128,-0.0847 0.36925,-0.16652 0.47962,-0.24672 0.11037,-0.0802 0.14009,-0.12733 0.14345,-0.19978 0.004,-0.0882 -0.0297,-0.15048 -0.14545,-0.252 -0.11581,-0.10151 -0.30329,-0.20953 -0.50356,-0.32129 -0.20028,-0.11176 -0.41326,-0.22687 -0.59197,-0.38869 -0.1787,-0.16185 -0.33071,-0.40827 -0.30146,-0.69407 0.0264,-0.25785 0.18306,-0.45254 0.358,-0.60757 0.17495,-0.15503 0.38263,-0.27882 0.58405,-0.38153 0.30592,-0.15599 0.4751,-0.20429 0.60039,-0.2464 v -0.91251 h -2.05866 z m -0.54017,0.11339 -7.28335,2.60116 v 1.11039 l 7.28335,-2.4577 z m 0,1.82355 -7.28335,2.45812 v 1.14563 l 7.28335,-1.62409 z m -10.09388,2.42248 c -0.45457,0 -0.82887,0.37459 -0.82887,0.82918 0,0.45458 0.3743,0.82886 0.82887,0.82886 0.45458,1e-5 0.82876,-0.37427 0.82876,-0.82886 0,-0.45459 -0.37418,-0.82919 -0.82876,-0.82918 z m 10.09388,0.11044 -7.28335,1.62408 v 1.13888 l 7.28335,-1.27938 z m 6.96732,0.54006 c -0.0281,-4e-4 -0.0564,-4e-4 -0.0851,1e-4 -0.39538,0.008 -0.84872,0.1315 -1.21956,0.24883 -0.37085,0.11733 -0.65578,0.23354 -0.65578,0.23354 a 0.27005783,0.27005783 0 1 0 0.20368,0.49997 c 0,0 0.26606,-0.10798 0.61517,-0.21845 0.3491,-0.11046 0.78508,-0.2183 1.06726,-0.22404 0.3476,-0.007 0.66279,0.0952 1.01335,0.2136 0.35056,0.11844 0.7361,0.25308 1.19446,0.24883 0.4257,-0.004 0.76157,-0.13715 1.06399,-0.25116 0.30242,-0.11398 0.57296,-0.21127 0.92854,-0.21127 a 0.27005783,0.27005783 0 1 0 0,-0.53985 c -0.45658,0 -0.81258,0.13046 -1.11904,0.24598 -0.30646,0.11553 -0.5622,0.21352 -0.87834,0.21644 -0.34865,0.004 -0.66543,-0.10168 -1.01694,-0.22045 -0.32954,-0.11134 -0.68986,-0.23476 -1.11166,-0.24207 z m -20.72856,1.21049 c -0.37742,0 -0.68931,0.31149 -0.68931,0.6889 0,0.37741 0.31189,0.68931 0.68931,0.68931 0.37742,0 0.68932,-0.3119 0.68932,-0.68931 0,-0.37741 -0.3119,-0.6889 -0.68932,-0.6889 z m 13.76124,0.28132 -7.28335,1.27927 v 1.15744 l 7.28335,-0.58974 z m 6.96732,0.55452 c -0.0281,-4.3e-4 -0.0564,-4.3e-4 -0.0851,1e-4 -0.39538,0.008 -0.84872,0.13191 -1.21956,0.24925 -0.37085,0.11734 -0.65578,0.23322 -0.65578,0.23322 a 0.27010577,0.27010577 0 0 0 0.20368,0.50029 c 0,0 0.26606,-0.10841 0.61517,-0.21887 0.3491,-0.11046 0.78508,-0.21788 1.06726,-0.22361 0.3476,-0.007 0.66279,0.0953 1.01335,0.21369 0.35056,0.11845 0.7361,0.25298 1.19446,0.24873 0.4257,-0.004 0.76157,-0.13715 1.06399,-0.25115 0.30242,-0.114 0.57296,-0.21127 0.92854,-0.21127 a 0.27014001,0.27014001 0 0 0 0,-0.54028 c -0.45658,0 -0.81258,0.13045 -1.11904,0.24598 -0.30646,0.11553 -0.5622,0.21362 -0.87834,0.21655 -0.34865,0.004 -0.66543,-0.10137 -1.01694,-0.22014 -0.32954,-0.11133 -0.68986,-0.23514 -1.11166,-0.24249 z m -17.59821,0.58256 a 0.27005783,0.27005783 0 0 0 -0.26591,0.27393 v 0.48796 a 0.27009789,0.27009789 0 0 0 0.54017,0 v -0.48796 a 0.27005783,0.27005783 0 0 0 -0.27426,-0.27393 z m -1.37905,0.57297 a 0.27005783,0.27005783 0 0 0 -0.18818,0.4636 l 0.34524,0.34481 a 0.27006021,0.27006021 0 1 0 0.38195,-0.38184 l -0.34524,-0.34493 a 0.27005783,0.27005783 0 0 0 -0.19377,-0.0816 z m 2.75801,0 a 0.27005783,0.27005783 0 0 0 -0.18575,0.0816 l -0.34482,0.34492 a 0.27006021,0.27006021 0 0 0 0.38184,0.38184 l 0.34492,-0.34481 a 0.27005783,0.27005783 0 0 0 -0.19619,-0.46359 z m -1.37505,0.6562 c -0.54728,0 -0.99658,0.44929 -0.99658,0.99659 0,0.54729 0.4493,0.99668 0.99658,0.99668 0.54728,0 0.99669,-0.44939 0.99669,-0.99668 0,-0.5473 -0.44941,-0.99659 -0.99669,-0.99659 z m 10.62698,0.0224 -7.28335,0.58964 v 0.91557 h 7.28335 z m 6.96732,0.21254 c -0.0281,-4.3e-4 -0.0564,-4.3e-4 -0.0851,2.1e-4 -0.39538,0.008 -0.84872,0.13139 -1.21956,0.24872 -0.37085,0.11734 -0.65578,0.23364 -0.65578,0.23364 a 0.27005783,0.27005783 0 1 0 0.20368,0.49987 c 0,0 0.26606,-0.10798 0.61517,-0.21844 0.3491,-0.11047 0.78508,-0.21831 1.06726,-0.22404 0.3476,-0.007 0.66279,0.0957 1.01335,0.21412 0.35056,0.11845 0.7361,0.25298 1.19446,0.24873 0.4257,-0.004 0.76157,-0.13716 1.06399,-0.25115 0.30242,-0.11401 0.57296,-0.2117 0.92854,-0.2117 a 0.27005783,0.27005783 0 1 0 0,-0.53975 c -0.45658,0 -0.81258,0.13045 -1.11904,0.24598 -0.30646,0.11552 -0.5622,0.21352 -0.87834,0.21645 -0.34865,0.004 -0.66543,-0.10169 -1.01694,-0.22045 -0.32954,-0.11135 -0.68986,-0.23488 -1.11166,-0.24219 z m -19.54612,0.49175 a 0.27009789,0.27009789 0 1 0 0,0.54017 h 0.48795 a 0.27009789,0.27009789 0 0 0 0,-0.54017 z m 3.41579,0 a 0.27009789,0.27009789 0 1 0 0,0.54017 h 0.48795 a 0.27009789,0.27009789 0 0 0 0,-0.54017 z m -2.50443,1.03255 a 0.27005783,0.27005783 0 0 0 -0.18544,0.0816 l -0.34524,0.34534 a 0.27006167,0.27006167 0 0 0 0.38195,0.38184 l 0.34524,-0.34524 a 0.27005783,0.27005783 0 0 0 -0.19651,-0.46359 z m 2.07301,0 a 0.27005783,0.27005783 0 0 0 -0.18807,0.46359 l 0.34482,0.34524 a 0.27006167,0.27006167 0 1 0 0.38194,-0.38184 l -0.34492,-0.34534 a 0.27005783,0.27005783 0 0 0 -0.19377,-0.0816 z m 2.31108,0.30854 v 0.94152 l 7.28335,0.58964 v -1.53116 z m -3.34754,0.11919 a 0.27005783,0.27005783 0 0 0 -0.26591,0.27394 v 0.48795 a 0.27009789,0.27009789 0 0 0 0.54017,0 v -0.48795 a 0.27005783,0.27005783 0 0 0 -0.27426,-0.27394 z m 21.7242,0.0945 c -0.45658,0 -0.81258,0.13087 -1.11905,0.2464 -0.30646,0.11552 -0.56219,0.21351 -0.87833,0.21644 -0.34865,0.004 -0.66543,-0.10168 -1.01694,-0.22045 -0.35151,-0.11877 -0.73798,-0.2513 -1.19679,-0.24197 -0.39538,0.008 -0.84872,0.13139 -1.21957,0.24872 -0.37084,0.11733 -0.65577,0.23364 -0.65577,0.23364 a 0.27005783,0.27005783 0 1 0 0.20368,0.49988 c 0,0 0.26606,-0.10799 0.61516,-0.21845 0.34911,-0.11047 0.78509,-0.21831 1.06726,-0.22405 0.3476,-0.007 0.66279,0.0953 1.01335,0.21371 0.35057,0.11844 0.73611,0.25297 1.19447,0.24871 0.4257,-0.004 0.76157,-0.13714 1.06398,-0.25114 0.30242,-0.114 0.57296,-0.21128 0.92855,-0.21128 a 0.27009789,0.27009789 0 0 0 0,-0.54016 z m -24.82027,1.01936 c -0.45458,0 -0.82886,0.37428 -0.82886,0.82887 0,0.45458 0.37429,0.82876 0.82886,0.82876 0.45458,0 0.82887,-0.37418 0.82887,-0.82876 0,-0.45459 -0.37429,-0.82887 -0.82887,-0.82887 z m 6.44361,0.25051 v 1.15692 l 7.28335,1.27927 v -1.84676 z m 14.25067,0.77677 c -0.0281,-4e-4 -0.0564,-4e-4 -0.0851,1e-4 -0.39538,0.008 -0.84872,0.13181 -1.21956,0.24915 -0.37085,0.11734 -0.65578,0.23321 -0.65578,0.23321 a 0.27013763,0.27013763 0 1 0 0.20368,0.50041 c 0,0 0.26606,-0.10841 0.61517,-0.21888 0.3491,-0.11046 0.78508,-0.21799 1.06726,-0.22372 0.3476,-0.007 0.66279,0.0953 1.01335,0.2137 0.35056,0.11845 0.7361,0.25297 1.19446,0.24873 0.4257,-0.004 0.76157,-0.13715 1.06399,-0.25115 0.30242,-0.114 0.57296,-0.21128 0.92854,-0.21128 a 0.27009685,0.27009685 0 0 0 0,-0.54017 c -0.45658,0 -0.81258,0.13046 -1.11904,0.24599 -0.30646,0.11552 -0.5622,0.21351 -0.87834,0.21644 -0.34865,0.004 -0.66543,-0.10169 -1.01694,-0.22045 -0.32954,-0.11135 -0.68986,-0.23477 -1.11166,-0.24208 z m -16.05734,0.2541 c -0.37742,0 -0.68932,0.3118 -0.68932,0.68921 1e-5,0.37745 0.3119,0.6889 0.68932,0.6889 0.37742,0 0.68921,-0.31145 0.68921,-0.6889 0,-0.37741 -0.31179,-0.68921 -0.68921,-0.68921 z m 1.80667,0.67423 v 1.13898 l 7.28335,1.62409 v -1.48368 z m -4.63524,0.41285 a 0.27005783,0.27005783 0 0 0 -0.26634,0.27394 v 0.48796 a 0.27009685,0.27009685 0 0 0 0.54017,0 v -0.48796 a 0.27005783,0.27005783 0 0 0 -0.27383,-0.27394 z m -1.37906,0.57288 a 0.27005783,0.27005783 0 0 0 -0.18817,0.46368 l 0.34492,0.34525 a 0.27007791,0.27007791 0 0 0 0.38194,-0.38195 l -0.34492,-0.34524 a 0.27005783,0.27005783 0 0 0 -0.19377,-0.0817 z m 2.75759,0 a 0.27005783,0.27005783 0 0 0 -0.18534,0.0817 l -0.34523,0.34524 a 0.27007696,0.27007696 0 1 0 0.38194,0.38195 l 0.34524,-0.34524 a 0.27005783,0.27005783 0 0 0 -0.19661,-0.46369 z m 17.50738,0.13269 c -0.0281,-4e-4 -0.0564,-4e-4 -0.0851,1e-4 -0.39538,0.008 -0.84872,0.13139 -1.21956,0.24872 -0.37085,0.11735 -0.65578,0.23364 -0.65578,0.23364 a 0.27005783,0.27005783 0 1 0 0.20368,0.49998 c 0,0 0.26606,-0.10798 0.61517,-0.21844 0.3491,-0.11047 0.78508,-0.21831 1.06726,-0.22404 0.3476,-0.007 0.66279,0.0951 1.01335,0.21359 0.35056,0.11845 0.7361,0.25308 1.19446,0.24882 0.4257,-0.004 0.76157,-0.13713 1.06399,-0.25114 0.30242,-0.11399 0.57296,-0.21127 0.92854,-0.21127 a 0.27005783,0.27005783 0 1 0 0,-0.53986 c -0.45658,0 -0.81258,0.13046 -1.11904,0.24599 -0.30646,0.11552 -0.5622,0.21351 -0.87834,0.21644 -0.34865,0.004 -0.66543,-0.10169 -1.01694,-0.22046 -0.32954,-0.11134 -0.68986,-0.23476 -1.11166,-0.24207 z m -18.8819,0.52361 c -0.54728,0 -0.99669,0.44971 -0.99669,0.99699 0,0.54729 0.44941,0.99669 0.99669,0.99669 0.54727,0 0.99658,-0.4494 0.99658,-0.99669 0,-0.54728 -0.44931,-0.99699 -0.99658,-0.99699 z m 4.63123,0.0501 v 1.14606 l 7.28335,2.4577 v -1.97955 z m -6.58316,0.67666 a 0.27009685,0.27009685 0 0 0 0,0.54017 h 0.48796 a 0.27009685,0.27009685 0 0 0 0,-0.54017 z m 3.41579,0 a 0.27009685,0.27009685 0 0 0 0,0.54017 h 0.48795 a 0.27009685,0.27009685 0 0 0 0,-0.54017 z m -0.43173,1.03256 a 0.27005783,0.27005783 0 0 0 -0.18818,0.46359 l 0.34523,0.34523 a 0.27006021,0.27006021 0 0 0 0.38195,-0.38184 l -0.34524,-0.34492 a 0.27005783,0.27005783 0 0 0 -0.19376,-0.0821 z m -2.0727,4.1e-4 a 0.27005783,0.27005783 0 0 0 -0.18575,0.0817 l -0.34492,0.34493 a 0.27006021,0.27006021 0 0 0 0.38194,0.38183 l 0.34492,-0.34524 a 0.27005783,0.27005783 0 0 0 -0.19619,-0.46327 z m 5.6718,0.006 v 1.00924 l 7.28335,2.60147 v -1.1529 z m -4.63524,0.42119 a 0.27005783,0.27005783 0 0 0 -0.26634,0.27393 v 0.48795 a 0.27009685,0.27009685 0 0 0 0.54017,0 v -0.48795 a 0.27005783,0.27005783 0 0 0 -0.27383,-0.27393 z"
         style="color:#000000;font-style:normal;font-variant:normal;font-weight:normal;font-stretch:normal;font-size:medium;line-height:normal;font-family:sans-serif;text-indent:0;text-align:start;text-decoration:none;text-decoration-line:none;text-decoration-style:solid;text-decoration-color:#000000;letter-spacing:normal;word-spacing:normal;text-transform:none;writing-mode:lr-tb;direction:ltr;baseline-shift:baseline;text-anchor:start;white-space:normal;clip-rule:nonzero;display:inline;overflow:visible;visibility:visible;opacity:1;isolation:auto;mix-blend-mode:normal;color-interpolation:sRGB;color-interpolation-filters:linearRGB;solid-color:#000000;solid-opacity:1;fill:#140001;fill-opacity:1;fill-rule:nonzero;stroke:none;stroke-width:0.54019;stroke-linecap:round;stroke-linejoin:round;stroke-miterlimit:4;stroke-dasharray:none;stroke-dashoffset:86.9572;stroke-opacity:1;color-rendering:auto;image-rendering:auto;shape-rendering:auto;text-rendering:auto;enable-background:accumulate"
         id="path469" />
    </g>
  </g>
</svg>
